<svg width="17" height="17" viewBox="0 0 17 17" fill="none" xmlns="http://www.w3.org/2000/svg">
<g style="mix-blend-mode:hard-light" opacity="0.76" filter="url(#filter0_d_0_88)">
<path d="M4.32422 8.44141C4.40625 8.52344 4.53516 8.52344 4.61719 8.43359C5.58203 7.41016 6.85156 6.87109 8.26953 6.87109C9.69922 6.87109 10.9727 7.41406 11.9297 8.4375C12.0117 8.51953 12.1328 8.51563 12.2187 8.42969L12.7656 7.88281C12.8437 7.80469 12.8398 7.70703 12.7773 7.62891C11.8398 6.47266 10.0898 5.64063 8.26953 5.64063C6.45312 5.64063 4.69922 6.47266 3.76172 7.62891C3.69922 7.70703 3.70312 7.80469 3.77734 7.88281L4.32422 8.44141ZM5.95703 10.0664C6.05078 10.1563 6.16797 10.1445 6.25781 10.0508C6.73437 9.52734 7.49609 9.16016 8.26953 9.16406C9.05078 9.16016 9.8125 9.53906 10.3008 10.0625C10.3789 10.1523 10.4922 10.1484 10.5859 10.0625L11.1992 9.46094C11.2734 9.39063 11.2773 9.29297 11.2148 9.21484C10.6055 8.48047 9.49219 7.94531 8.26953 7.94531C7.04687 7.94531 5.93359 8.48047 5.32812 9.21484C5.26172 9.29297 5.26562 9.38672 5.34375 9.46094L5.95703 10.0664ZM8.26953 12.2266C8.36719 12.2266 8.44922 12.1836 8.60547 12.0312L9.5625 11.1094C9.63281 11.043 9.64844 10.9375 9.58594 10.8594C9.3125 10.5117 8.82031 10.2344 8.26953 10.2344C7.70703 10.2344 7.20703 10.5273 6.9375 10.8906C6.89062 10.9609 6.91406 11.043 6.98047 11.1094L7.9375 12.0312C8.09375 12.1797 8.17578 12.2266 8.26953 12.2266Z" fill="black"/>
</g>
<defs>
<filter id="filter0_d_0_88" x="0.936362" y="4.2592" width="14.6702" height="12.1117" filterUnits="userSpaceOnUse" color-interpolation-filters="sRGB">
<feFlood flood-opacity="0" result="BackgroundImageFix"/>
<feColorMatrix in="SourceAlpha" type="matrix" values="0 0 0 0 0 0 0 0 0 0 0 0 0 0 0 0 0 0 127 0" result="hardAlpha"/>
<feOffset dy="1.38143"/>
<feGaussianBlur stdDeviation="1.38143"/>
<feColorMatrix type="matrix" values="0 0 0 0 0 0 0 0 0 0 0 0 0 0 0 0 0 0 0.15 0"/>
<feBlend mode="normal" in2="BackgroundImageFix" result="effect1_dropShadow_0_88"/>
<feBlend mode="normal" in="SourceGraphic" in2="effect1_dropShadow_0_88" result="shape"/>
</filter>
</defs>
</svg>
