<svg width="19" height="17" viewBox="0 0 19 17" fill="none" xmlns="http://www.w3.org/2000/svg">
<g style="mix-blend-mode:hard-light" opacity="0.76" filter="url(#filter0_d_0_86)">
<path d="M3.54785 12.3633H11.8892C12.8613 12.3633 13.5542 12.2559 14.0537 11.7563C14.5479 11.2622 14.6499 10.5801 14.6499 9.60254V8.15771C14.6499 7.18018 14.5479 6.49268 14.0537 5.99854C13.5542 5.49902 12.8613 5.3916 11.8892 5.3916H3.51562C2.58105 5.3916 1.88818 5.50439 1.38867 5.99854C0.894531 6.49805 0.787109 7.18555 0.787109 8.12012V9.60254C0.787109 10.5801 0.88916 11.2622 1.3833 11.7563C1.88818 12.2559 2.57568 12.3633 3.54785 12.3633ZM3.40283 11.6973C2.77441 11.6973 2.20508 11.6006 1.87207 11.2676C1.54443 10.9399 1.45312 10.3813 1.45312 9.74756V8.04492C1.45312 7.38428 1.54443 6.81494 1.87207 6.48193C2.19971 6.14893 2.77979 6.05762 3.44043 6.05762H12.0342C12.668 6.05762 13.2373 6.15967 13.5649 6.4873C13.8926 6.81494 13.9893 7.37354 13.9893 8.0127V9.74756C13.9893 10.3813 13.8926 10.9399 13.5649 11.2676C13.2373 11.6006 12.668 11.6973 12.0342 11.6973H3.40283ZM3.22021 11.144H12.2275C12.7109 11.144 12.9956 11.0742 13.1782 10.8916C13.3608 10.7036 13.436 10.4136 13.436 9.93555V7.81934C13.436 7.33594 13.3608 7.05127 13.1782 6.86865C12.9956 6.68604 12.7056 6.61084 12.2275 6.61084H3.25244C2.73682 6.61084 2.44141 6.68604 2.26416 6.86328C2.08691 7.0459 2.00635 7.34131 2.00635 7.85156V9.93555C2.00635 10.4243 2.08691 10.7036 2.26416 10.8916C2.44678 11.0688 2.74219 11.144 3.22021 11.144ZM15.2783 10.188C15.6758 10.1611 16.2129 9.65088 16.2129 8.87744C16.2129 8.10938 15.6758 7.59375 15.2783 7.57227V10.188Z" fill="black"/>
</g>
<defs>
<filter id="filter0_d_0_86" x="-1.97575" y="4.01017" width="20.9515" height="12.4974" filterUnits="userSpaceOnUse" color-interpolation-filters="sRGB">
<feFlood flood-opacity="0" result="BackgroundImageFix"/>
<feColorMatrix in="SourceAlpha" type="matrix" values="0 0 0 0 0 0 0 0 0 0 0 0 0 0 0 0 0 0 127 0" result="hardAlpha"/>
<feOffset dy="1.38143"/>
<feGaussianBlur stdDeviation="1.38143"/>
<feColorMatrix type="matrix" values="0 0 0 0 0 0 0 0 0 0 0 0 0 0 0 0 0 0 0.15 0"/>
<feBlend mode="normal" in2="BackgroundImageFix" result="effect1_dropShadow_0_86"/>
<feBlend mode="normal" in="SourceGraphic" in2="effect1_dropShadow_0_86" result="shape"/>
</filter>
</defs>
</svg>
