<svg width="17" height="17" viewBox="0 0 17 17" fill="none" xmlns="http://www.w3.org/2000/svg">
<g style="mix-blend-mode:hard-light" opacity="0.76" filter="url(#filter0_d_0_92)">
<path d="M5.88281 8.80078H10.2266C11.2812 8.80078 12.1133 8.0625 12.1133 6.96484C12.1133 5.86719 11.2812 5.12891 10.2266 5.12891H5.88281C4.82812 5.12891 3.99609 5.86719 3.99609 6.96484C3.99609 8.0625 4.82812 8.80078 5.88281 8.80078ZM5.88281 8.09766C5.24609 8.09766 4.69922 7.63672 4.69922 6.96484C4.69922 6.29297 5.24609 5.83203 5.88281 5.83203H10.2266C10.8633 5.83203 11.4141 6.29297 11.4141 6.96484C11.4141 7.63672 10.8633 8.09766 10.2266 8.09766H5.88281ZM5.88281 7.83984C6.37109 7.84375 6.76172 7.44531 6.76172 6.95703C6.76562 6.47266 6.37109 6.08594 5.88281 6.08594C5.39453 6.08594 5.00781 6.47656 5.00781 6.96094C5.00781 7.44922 5.39453 7.83594 5.88281 7.83984ZM5.72266 12.7227H10.3867C11.3477 12.7227 12.1133 12.0469 12.1133 11.0625C12.1133 10.0781 11.3477 9.39844 10.3867 9.39844H5.72266C4.76172 9.39844 3.99609 10.0781 3.99609 11.0625C3.99609 12.0469 4.76172 12.7227 5.72266 12.7227ZM10.4883 12.0273C9.94922 12.0234 9.52344 11.5938 9.52344 11.0586C9.52344 10.5234 9.94922 10.0938 10.4883 10.0938C11.0234 10.0938 11.4609 10.5234 11.457 11.0508C11.4531 11.5938 11.0195 12.0312 10.4883 12.0273Z" fill="black"/>
</g>
<defs>
<filter id="filter0_d_0_92" x="1.23324" y="3.74748" width="13.6429" height="13.1195" filterUnits="userSpaceOnUse" color-interpolation-filters="sRGB">
<feFlood flood-opacity="0" result="BackgroundImageFix"/>
<feColorMatrix in="SourceAlpha" type="matrix" values="0 0 0 0 0 0 0 0 0 0 0 0 0 0 0 0 0 0 127 0" result="hardAlpha"/>
<feOffset dy="1.38143"/>
<feGaussianBlur stdDeviation="1.38143"/>
<feColorMatrix type="matrix" values="0 0 0 0 0 0 0 0 0 0 0 0 0 0 0 0 0 0 0.15 0"/>
<feBlend mode="normal" in2="BackgroundImageFix" result="effect1_dropShadow_0_92"/>
<feBlend mode="normal" in="SourceGraphic" in2="effect1_dropShadow_0_92" result="shape"/>
</filter>
</defs>
</svg>
